<mxfile host="app.diagrams.net" modified="2024-04-24T07:06:08.552Z" agent="Mozilla/5.0 (Windows NT 10.0; Win64; x64) AppleWebKit/537.36 (KHTML, like Gecko) Chrome/124.0.0.0 Safari/537.36" version="24.2.7" etag="tsMMG6c-R2XOVIB8Fiih" type="github">
  <diagram name="第 1 页" id="Ajy2wys66Fz0jSLVwlwM">
    <mxGraphModel>
      <root>
        <mxCell id="0" />
        <mxCell id="1" parent="0" />
      </root>
    </mxGraphModel>
  </diagram>
</mxfile>
